
<!-- <?xml version="1.0" encoding="iso-8859-1"?> -->
<!-- Generator: Adobe Illustrator 18.0.0, SVG Export Plug-In . SVG Version: 6.00 Build 0)  -->
<!-- <!DOCTYPE svg PUBLIC "-//W3C//DTD SVG 1.1//EN" "http://www.w3.org/Graphics/SVG/1.1/DTD/svg11.dtd"> -->
<svg version="1.1" id="_x34_" xmlns="http://www.w3.org/2000/svg" xmlns:xlink="http://www.w3.org/1999/xlink" x="0px" y="0px"
	 viewBox="0 0 512 512" style="enable-background: new 0 0 512 512" xml:space="preserve">
<g>
	<g>
		<path style="fill: #d7d7d7" d="M 507 154.4 l -0.3 283.6 c 0 12.7 -10.3 23.2 -22.7 23.2 H 18 c -2.2 0 -4.3 -0.3 -6.4 -1 c -7.3 -2.2 -13 -8 -15.3 -15.3 c -0.6 -2.2 -1 -4.5 -1 -6.9 L -5 154.4 C -5 111.8 29.1 77 70.6 77 h 360.7 c 15.4 0 29.7 4.8 41.7 13 c 8 5.4 14.8 12.3 20.3 20.3 C 502 122.8 507 138.1 507 154.4 z"/>
		<path style="fill: #7cc1c6" d="M 436.9 100.5 c -0.3 -0.1 -0.7 -0.2 -0.9 -0.3 h -4.6 h -65.9 c -4.9 0 -8.9 4.1 -8.9 9.1 v 78 c 0 52.4 -21 47.8 -46.8 47.8 h -47.4 h -9 h -4.8 h -9 h -47.4 c -25.7 0 -46.8 -0.2 -46.8 -47.8 v -78 c 0 -5 -4 -9.1 -8.9 -9.1 H 70.7 h -4.6 c -0.3 0.1 -0.6 0.2 -0.9 0.3 c -26.6 2.9 -47.4 26 -47.4 53.9 v 38.7 l 0.3 206.3 v 29.5 c 0 5 4 9.1 8.9 9.1 h 28.9 h 168.6 h 15.2 h 22.7 h 15.2 h 168.6 h 28.9 c 4.9 0 8.9 -4.1 8.9 -9.1 v -29.5 l 0.3 -206.3 V 154.4 C 484.3 126.5 463.5 103.4 436.9 100.5 z"/>
		<g>
			<g>
				<path style="fill: #feffff" d="M 341.4 138.9 v 56.4 c 0 12.3 -10 22.2 -22.2 22.2 H 182.8 c -12.3 0 -22.2 -10 -22.2 -22.2 v -56.4 c 0 -21.3 17.4 -38.7 38.7 -38.7 h 103.5 C 324 100.3 341.4 117.7 341.4 138.9 z"/>
				<g>
					<g>
						<polygon style="fill: #c3c2c2" points="331.2,132.4 336.6,133.3 331,162.7 325.8,161.8"/>
						<polygon style="fill: #c3c2c2" points="316.4,129.9 321.8,130.8 317.2,160.3 312,159.5"/>
						<polygon style="fill: #c3c2c2; opacity: 0" points="301.5,128 307,128.7 303.3,158.4 298.1,157.8"/>
					</g>
					<g>
						<polygon style="fill: #c3c2c2" points="296.7,120.1 302.3,120.8 297.3,165.3 292.2,164.7"/>
						<polygon style="fill: #c3c2c2" points="281,126.2 286.5,126.6 284.2,156.5 279,156.1"/>
						<polygon style="fill: #c3c2c2" points="266,125.5 271.6,125.6 270.2,155.5 265,155.4"/>
						<polygon style="fill: #c3c2c2; opacity: 0" points="251,125.1 256.5,125.2 256.2,155.2 251,155"/>
					</g>
					<g>
						<polygon style="fill: #c3c2c2" points="230.4,125.6 236,125.5 237,155.4 231.8,155.5"/>
						<polygon style="fill: #c3c2c2" points="215.4,126.6 221,126.2 223,156.1 217.8,156.5"/>
						<polygon style="fill: #c3c2c2; opacity: 0" points="200.5,128 206,127.4 209,157.2 203.8,157.8"/>
					</g>
					<g>
						<polygon style="fill: #c3c2c2" points="194.1,121.5 199.7,120.8 204.7,165.3 199.6,165.9"/>
						<polygon style="fill: #c3c2c2" points="180.1,130.8 185.6,129.9 189.9,159.5 184.8,160.3"/>
						<polygon style="fill: #c3c2c2" points="165.3,133.3 170.8,132.4 176.1,161.8 171,162.7"/>
						<polygon style="fill: #c3c2c2; opacity: 0" points="162.4,164.5 160.6,164.9 160.6,156.2"/>
					</g>
				</g>
			</g>
			<g>
				<circle style="fill: #dc4b58" cx="249.7" cy="192.9" r="11.9"/>
				<polygon style="fill: #dc4b58" points="249.7,121 246.1,195.1 249.7,195.1 253.3,195.1"/>
			</g>
		</g>
		<path style="fill: #d5d6d5" d="M 293.7 331.4 v 129.8 h -85.5 V 331.4 c 0 -11.6 9.5 -21.1 21 -21.1 h 43.4 c 6.8 0 13 3.3 16.8 8.5 C 292.2 322.3 293.7 326.7 293.7 331.4 z"/>
		<path style="fill: #d7d7d7" d="M 293.7 340.8 v 120.4 h -85.5 V 340.8 c 0 -11.6 9.5 -21.1 21 -21.1 h 43.4 c 6.8 0 13 3.3 16.8 8.5 C 292.2 331.7 293.7 336.1 293.7 340.8 z"/>
	</g>
	<path style="fill: #040000; opacity: 0.06" d="M 493.4 110.3 c -5.5 -8 -12.4 -14.9 -20.3 -20.3 C 461.1 81.8 446.7 77 431.4 77 H 251 v 384.2 h 42.7 v 0 h 190.2 c 12.4 0 22.7 -10.4 22.7 -23.2 L 507 154.4 C 507 138.1 502 122.8 493.4 110.3 z"/>
</g>
</svg>